<mxfile host="65bd71144e">
    <diagram id="jmNPVUI-ttUi-A2hfjGX" name="Seite-1">
        <mxGraphModel dx="414" dy="445" grid="1" gridSize="10" guides="1" tooltips="1" connect="1" arrows="1" fold="1" page="1" pageScale="1" pageWidth="1169" pageHeight="827" background="none" math="0" shadow="0">
            <root>
                <mxCell id="0"/>
                <mxCell id="1" parent="0"/>
                <mxCell id="8" value="" style="group" parent="1" vertex="1" connectable="0">
                    <mxGeometry x="215" y="270" width="100" height="100" as="geometry"/>
                </mxCell>
                <mxCell id="3" value="" style="verticalLabelPosition=bottom;verticalAlign=top;html=1;shape=mxgraph.flowchart.on-page_reference;" parent="8" vertex="1">
                    <mxGeometry width="100" height="100" as="geometry"/>
                </mxCell>
                <mxCell id="4" value="Root" style="text;html=1;align=center;verticalAlign=middle;resizable=0;points=[];autosize=1;strokeColor=none;fillColor=none;" parent="8" vertex="1">
                    <mxGeometry x="25" y="35" width="50" height="30" as="geometry"/>
                </mxCell>
                <mxCell id="9" value="" style="group" parent="1" vertex="1" connectable="0">
                    <mxGeometry x="450" y="270" width="100" height="100" as="geometry"/>
                </mxCell>
                <mxCell id="10" value="" style="verticalLabelPosition=bottom;verticalAlign=top;html=1;shape=mxgraph.flowchart.on-page_reference;" parent="9" vertex="1">
                    <mxGeometry width="100" height="100" as="geometry"/>
                </mxCell>
                <mxCell id="11" value="Epic" style="text;html=1;align=center;verticalAlign=middle;resizable=0;points=[];autosize=1;strokeColor=none;fillColor=none;" parent="9" vertex="1">
                    <mxGeometry x="25" y="35" width="50" height="30" as="geometry"/>
                </mxCell>
                <mxCell id="12" style="edgeStyle=none;html=1;entryX=0;entryY=0.5;entryDx=0;entryDy=0;entryPerimeter=0;" parent="1" source="3" target="10" edge="1">
                    <mxGeometry relative="1" as="geometry"/>
                </mxCell>
            </root>
        </mxGraphModel>
    </diagram>
</mxfile>